<svg xmlns="http://www.w3.org/2000/svg" xmlns:xlink="http://www.w3.org/1999/xlink" width="1200" height="1200" viewBox="0 0 1200 1200">
  <defs>
    <linearGradient id="linear-gradient" x1="0.5" x2="0.5" y2="1" gradientUnits="objectBoundingBox">
      <stop offset="0" stop-color="#fd9d02"/>
      <stop offset="0.243" stop-color="#f5d10b"/>
      <stop offset="1" stop-color="#f4db0d"/>
    </linearGradient>
    <linearGradient id="linear-gradient-3" x1="0.5" x2="0.5" y2="1" gradientUnits="objectBoundingBox">
      <stop offset="0" stop-color="#f4db0d"/>
      <stop offset="1" stop-color="#fd9d02"/>
    </linearGradient>
    <clipPath id="clip-cd-character">
      <rect width="1200" height="1200"/>
    </clipPath>
  </defs>
  <g id="cd-character" clip-path="url(#clip-cd-character)">
    <g id="Group_1120" data-name="Group 1120" transform="translate(0 10)">
      <path id="Path_936" data-name="Path 936" d="M75,0c21.421,0,75,55.964,75,125S96.421,250,75,250,0,194.036,0,125,53.579,0,75,0Z" transform="matrix(0.966, -0.259, 0.259, 0.966, 376.203, 33.671)" fill="#121212"/>
      <path id="Path_936-2" data-name="Path 936" d="M75,0c21.421,0,75,55.964,75,125S96.421,250,75,250,0,194.036,0,125,53.579,0,75,0Z" transform="matrix(0.966, 0.259, -0.259, 0.966, 676.908, -5.152)" fill="#121212"/>
      <path id="Path_937" data-name="Path 937" d="M45,0C57.853,0,90,44.772,90,100S57.853,200,45,200,0,155.228,0,100,32.147,0,45,0Z" transform="matrix(0.966, -0.259, 0.259, 0.966, 407.769, 35.565)" fill="url(#linear-gradient)"/>
      <path id="Path_940" data-name="Path 940" d="M45,0C57.853,0,90,44.772,90,100S57.853,200,45,200,0,155.228,0,100,32.147,0,45,0Z" transform="matrix(0.966, 0.259, -0.259, 0.966, 703.298, 12.272)" fill="url(#linear-gradient)"/>
      <path id="Subtraction_54" data-name="Subtraction 54" d="M560,1120a569,569,0,0,1-57.257-2.891,561.5,561.5,0,0,1-55.6-8.486c-18.042-3.692-36.1-8.335-53.667-13.8-17.372-5.4-34.683-11.739-51.45-18.831-16.613-7.026-33.083-14.961-48.952-23.581-15.757-8.56-31.292-18-46.172-28.05-14.809-10-29.314-20.851-43.111-32.237-13.764-11.359-27.143-23.519-39.768-36.143s-24.785-26-36.143-39.768c-11.386-13.8-22.233-28.3-32.238-43.111-10.053-14.88-19.49-30.415-28.05-46.172-8.621-15.869-16.555-32.339-23.581-48.952C36.915,761.21,30.58,743.9,25.176,726.527c-5.465-17.569-10.107-35.625-13.8-53.667a561.477,561.477,0,0,1-8.486-55.6,568.409,568.409,0,0,1,0-114.514,561.476,561.476,0,0,1,8.486-55.6c3.692-18.042,8.335-36.1,13.8-53.667,5.4-17.372,11.739-34.683,18.831-51.45,7.027-16.613,14.961-33.083,23.581-48.952,8.56-15.757,18-31.292,28.05-46.172,10.005-14.809,20.851-29.314,32.238-43.111,11.359-13.764,23.519-27.143,36.143-39.768s26-24.785,39.768-36.143c13.8-11.386,28.3-22.233,43.111-32.238,14.88-10.053,30.415-19.49,46.172-28.05,15.869-8.621,32.339-16.555,48.952-23.581,16.768-7.092,34.078-13.428,51.45-18.831,17.569-5.465,35.625-10.107,53.667-13.8a561.476,561.476,0,0,1,55.6-8.486,568.409,568.409,0,0,1,114.514,0,561.477,561.477,0,0,1,55.6,8.486c18.042,3.692,36.1,8.335,53.667,13.8,17.372,5.4,34.683,11.739,51.45,18.831,16.613,7.027,33.083,14.961,48.952,23.581,15.757,8.56,31.292,18,46.172,28.05,14.809,10.005,29.314,20.851,43.111,32.238,13.764,11.359,27.143,23.519,39.768,36.143s24.785,26,36.143,39.768c11.386,13.8,22.233,28.3,32.237,43.111,10.053,14.88,19.49,30.415,28.05,46.172,8.621,15.869,16.555,32.339,23.581,48.952,7.092,16.768,13.428,34.078,18.831,51.45,5.465,17.569,10.107,35.625,13.8,53.667a561.5,561.5,0,0,1,8.486,55.6,568.415,568.415,0,0,1,0,114.514,561.5,561.5,0,0,1-8.486,55.6c-3.692,18.042-8.335,36.1-13.8,53.667-5.4,17.372-11.739,34.683-18.831,51.45-7.026,16.613-14.961,33.083-23.581,48.952-8.56,15.757-18,31.292-28.05,46.172-10,14.809-20.851,29.314-32.237,43.111-11.359,13.764-23.519,27.143-36.143,39.768s-26,24.785-39.768,36.143c-13.8,11.386-28.3,22.233-43.111,32.237-14.88,10.053-30.415,19.49-46.172,28.05-15.869,8.621-32.339,16.555-48.952,23.581-16.768,7.092-34.078,13.428-51.45,18.831-17.569,5.465-35.625,10.107-53.667,13.8a561.5,561.5,0,0,1-55.6,8.486A568.994,568.994,0,0,1,560,1120Zm0-585a25,25,0,1,0,25,25A25.028,25.028,0,0,0,560,535Z" transform="translate(40 40)" fill="#121212"/>
      <g id="Group_1118" data-name="Group 1118" transform="translate(0 20)">
        <path id="Subtraction_55" data-name="Subtraction 55" d="M125,250a125.921,125.921,0,0,1-25.192-2.54,124.317,124.317,0,0,1-44.7-18.809,125.364,125.364,0,0,1-45.288-55A124.366,124.366,0,0,1,2.54,150.192a126.216,126.216,0,0,1,0-50.384,124.317,124.317,0,0,1,18.808-44.7,125.365,125.365,0,0,1,55-45.288A124.366,124.366,0,0,1,99.808,2.54a126.216,126.216,0,0,1,50.384,0,124.318,124.318,0,0,1,44.7,18.808,125.365,125.365,0,0,1,45.288,55,124.367,124.367,0,0,1,7.284,23.464,126.216,126.216,0,0,1,0,50.384,124.318,124.318,0,0,1-18.809,44.7,125.365,125.365,0,0,1-55,45.288,124.368,124.368,0,0,1-23.464,7.284A125.92,125.92,0,0,1,125,250Zm0-150a25,25,0,1,0,25,25A25.029,25.029,0,0,0,125,100Z" transform="translate(475 455)" fill="url(#linear-gradient-3)"/>
        <g id="Ellipse_370" data-name="Ellipse 370" transform="translate(475 455)" fill="none" stroke="#fff" stroke-width="10" opacity="0.3">
          <circle cx="125" cy="125" r="125" stroke="none"/>
          <circle cx="125" cy="125" r="120" fill="none"/>
        </g>
      </g>
      <g id="Group_1119" data-name="Group 1119" transform="translate(0 -113)">
        <g id="Path_901" data-name="Path 901" transform="translate(396.005 102.693)" fill="#fff">
          <path d="M 121.2829208374023 156.3069915771484 C 119.1167526245117 156.3069915771484 116.9753494262695 155.9204254150391 114.9182357788086 155.1580047607422 C 103.1142120361328 150.7864990234375 90.69149780273438 148.5702056884766 77.99380493164062 148.5702056884766 C 65.29692077636719 148.5702056884766 52.87463760375977 150.7864990234375 41.07201766967773 155.157470703125 C 39.01304244995117 155.9199523925781 36.87166213989258 156.3066253662109 34.70751953125 156.3067169189453 C 26.88935089111328 156.3070678710938 19.83001899719238 151.2589569091797 17.14130401611328 143.7451171875 C 13.58366107940674 133.8037872314453 18.60616111755371 122.784309387207 28.33725547790527 119.1807632446289 C 44.23594665527344 113.2925491333008 60.94273376464844 110.306999206543 77.99380493164062 110.306999206543 C 95.04568481445312 110.306999206543 111.7528991699219 113.2925491333008 127.6513519287109 119.1806869506836 C 137.3824462890625 122.7842102050781 142.4054260253906 133.8039093017578 138.8486328125 143.7454528808594 C 136.1592864990234 151.2585296630859 129.1000213623047 156.3069915771484 121.2829208374023 156.3069915771484 Z" stroke="none"/>
          <path d="M 121.2829208374023 150.3070068359375 C 126.5728912353516 150.3070068359375 131.3619842529297 146.8571319580078 133.1993408203125 141.7243041992188 C 135.6539154052734 134.8634796142578 132.2305450439453 127.2746047973633 125.567512512207 124.8072204589844 C 110.3383026123047 119.1668930053711 94.33218383789062 116.307014465332 77.99380493164062 116.307014465332 C 61.65627670288086 116.307014465332 45.65056991577148 119.1668930053711 30.42083549499512 124.8073959350586 C 23.75836372375488 127.2745742797852 20.33536338806152 134.8630676269531 22.79051208496094 141.7236328125 C 24.62765884399414 146.857666015625 29.41662788391113 150.3069305419922 34.707275390625 150.3066864013672 C 36.15801239013672 150.3066253662109 37.59845352172852 150.0455780029297 38.98827743530273 149.5309295654297 C 51.46001052856445 144.9121246337891 64.58336639404297 142.5702209472656 77.99380493164062 142.5702209472656 C 91.40506744384766 142.5702209472656 104.5288314819336 144.9121246337891 117.0034255981445 149.5319519042969 C 118.3910140991211 150.0462493896484 119.8308334350586 150.3070068359375 121.2829208374023 150.3070068359375 M 121.2829208374023 162.3070068359375 C 118.4766006469727 162.3070068359375 115.6233673095703 161.8181610107422 112.8330993652344 160.7840118408203 C 101.7004852294922 156.6611633300781 89.97869110107422 154.5702209472656 77.99380493164062 154.5702209472656 C 66.01015472412109 154.5702209472656 54.28836441040039 156.6611633300781 43.15574645996094 160.7840118408203 C 30.33590126037598 165.5313262939453 16.1585693359375 158.8074340820312 11.49209976196289 145.7666320800781 C 6.824393272399902 132.7233123779297 13.43380546569824 118.301513671875 26.25365829467773 113.5541915893555 C 42.82104110717773 107.4182739257812 60.22954177856445 104.307014465332 77.99380493164062 104.307014465332 C 95.76054382324219 104.307014465332 113.1678314208984 107.4182739257812 129.7351837158203 113.5541915893555 C 142.5550689697266 118.301513671875 149.1644744873047 132.7233123779297 144.4979858398438 145.7666320800781 C 140.8455657958984 155.9700775146484 131.373046875 162.3070068359375 121.2829208374023 162.3070068359375 Z" stroke="none" fill="#fff"/>
        </g>
        <path id="Path_902" data-name="Path 902" d="M121.283,162.307a24.263,24.263,0,0,1-8.45-1.523,100.771,100.771,0,0,0-69.677,0,24.591,24.591,0,0,1-31.664-15.017,25.253,25.253,0,0,1,14.762-32.212,149.376,149.376,0,0,1,103.482,0A25.254,25.254,0,0,1,144.5,145.767,24.737,24.737,0,0,1,121.283,162.307Z" transform="translate(648.005 102.693)" fill="#fff"/>
        <path id="Path_903" data-name="Path 903" d="M20,0C35.046,0,40,4.029,40,9s-4.954,9-20,9S0,13.971,0,9,4.954,0,20,0Z" transform="translate(454.043 265)" fill="#fdc2ce"/>
        <path id="Path_904" data-name="Path 904" d="M20,0C35.046,0,40,4.029,40,9s-4.954,9-20,9S0,13.971,0,9,4.954,0,20,0Z" transform="translate(706 265)" fill="#fdc2ce"/>
      </g>
      <path id="Path_900" data-name="Path 900" d="M-2345.795,1467.964l24,28,24-28" transform="translate(2921.795 -1333.964)" fill="none" stroke="#fff" stroke-linecap="round" stroke-linejoin="round" stroke-width="4"/>
    </g>
  </g>
</svg>
