<svg xmlns="http://www.w3.org/2000/svg" xmlns:xlink="http://www.w3.org/1999/xlink" width="1200" height="1200" viewBox="0 0 1200 1200">
  <defs>
    <clipPath id="clip-path">
      <rect id="Rectangle_13539" data-name="Rectangle 13539" width="1200" height="1200" transform="translate(-1794 160)" fill="#fff" stroke="#707070" stroke-width="1"/>
    </clipPath>
    <linearGradient id="linear-gradient" x1="0.5" x2="0.5" y2="1" gradientUnits="objectBoundingBox">
      <stop offset="0" stop-color="#f4db0d"/>
      <stop offset="1" stop-color="#fd9d02"/>
    </linearGradient>
  </defs>
  <g id="Mask_Group_386" data-name="Mask Group 386" transform="translate(1794 -160)" clip-path="url(#clip-path)">
    <g id="Group_1073" data-name="Group 1073">
      <path id="Subtraction_44" data-name="Subtraction 44" d="M560,1160a568.952,568.952,0,0,1-57.257-2.891,561.425,561.425,0,0,1-55.6-8.486c-18.042-3.692-36.1-8.335-53.667-13.8-17.375-5.4-34.685-11.74-51.45-18.831-16.613-7.026-33.083-14.96-48.952-23.581-15.757-8.559-31.291-18-46.172-28.05-14.809-10-29.314-20.851-43.111-32.238-13.763-11.358-27.143-23.519-39.768-36.143s-24.785-26-36.143-39.768c-11.387-13.8-22.233-28.3-32.238-43.111-10.053-14.88-19.49-30.414-28.05-46.172-8.621-15.869-16.554-32.338-23.581-48.952C36.916,801.21,30.58,783.9,25.176,766.527c-5.465-17.569-10.107-35.626-13.8-53.667a561.459,561.459,0,0,1-8.486-55.6A569,569,0,0,1,0,600,559.377,559.377,0,0,1,28.166,424.158c4.531-13.71,9.663-27.416,15.255-40.737,5.551-13.223,11.694-26.4,18.258-39.165C68.2,331.568,75.311,318.968,82.8,306.8c7.454-12.106,15.476-24.083,23.841-35.6,8.339-11.478,17.228-22.784,26.421-33.6,9.177-10.8,18.887-21.388,28.859-31.466s20.454-19.9,31.156-29.189c10.718-9.3,21.926-18.311,33.312-26.77,11.421-8.484,23.306-16.63,35.327-24.21,12.074-7.614,24.591-14.851,37.2-21.509,12.684-6.7,25.783-12.978,38.933-18.667,13.246-5.731,26.881-11.008,40.525-15.684a165.163,165.163,0,0,1,35.808-50.623C426.836,7.467,439.506,0,447.25,0c5.818,0,13.617,4.213,21.961,11.863a113.136,113.136,0,0,1,12.6,13.817,153.5,153.5,0,0,1,12.126,18.175,567.884,567.884,0,0,1,132.124,0A153.534,153.534,0,0,1,638.189,25.68a113.15,113.15,0,0,1,12.6-13.817C659.133,4.213,666.932,0,672.75,0c7.745,0,20.416,7.466,33.067,19.484A165.121,165.121,0,0,1,741.624,70.11c13.647,4.677,27.282,9.954,40.525,15.684,13.151,5.69,26.25,11.97,38.933,18.667,12.61,6.658,25.126,13.895,37.2,21.509,12.021,7.58,23.907,15.726,35.327,24.21,11.386,8.459,22.594,17.465,33.312,26.77,10.7,9.29,21.184,19.11,31.156,29.188S977.761,226.8,986.938,237.6c9.193,10.82,18.083,22.125,26.421,33.6,8.365,11.514,16.386,23.491,23.841,35.6,7.489,12.164,14.6,24.764,21.12,37.452,6.564,12.765,12.708,25.942,18.258,39.165,5.592,13.32,10.724,27.026,15.255,40.737A559.381,559.381,0,0,1,1120,600a568.986,568.986,0,0,1-2.891,57.257,561.484,561.484,0,0,1-8.486,55.6c-3.692,18.042-8.335,36.1-13.8,53.667-5.4,17.373-11.739,34.683-18.831,51.451-7.027,16.613-14.961,33.083-23.581,48.952-8.56,15.758-18,31.292-28.05,46.172-10,14.809-20.851,29.313-32.237,43.111-11.359,13.764-23.519,27.143-36.143,39.768s-26,24.785-39.768,36.143c-13.8,11.387-28.3,22.233-43.111,32.238-14.881,10.053-30.415,19.491-46.172,28.05-15.869,8.621-32.339,16.555-48.952,23.581-16.765,7.091-34.076,13.427-51.45,18.831-17.569,5.465-35.625,10.107-53.667,13.8a561.425,561.425,0,0,1-55.6,8.486A568.951,568.951,0,0,1,560,1160Zm0-605a25,25,0,1,0,25,25A25.028,25.028,0,0,0,560,555Z" transform="translate(-1754 180)" fill="#0c0c0c"/>
      <path id="Path_853" data-name="Path 853" d="M-2345.795,1467.964l28,32,28-32" transform="translate(1123.795 -1153.964)" fill="none" stroke="#fff" stroke-linecap="round" stroke-linejoin="round" stroke-width="5"/>
      <g id="Path_854" data-name="Path 854" transform="translate(-1397.995 169.693)" fill="#fff">
        <path d="M 121.2829208374023 156.3069915771484 C 119.1167526245117 156.3069915771484 116.9753494262695 155.9204254150391 114.9182357788086 155.1580047607422 C 103.1142120361328 150.7864990234375 90.69149780273438 148.5702056884766 77.99380493164062 148.5702056884766 C 65.29692077636719 148.5702056884766 52.87463760375977 150.7864990234375 41.07201766967773 155.157470703125 C 39.01304244995117 155.9199523925781 36.87166213989258 156.3066253662109 34.70751953125 156.3067169189453 C 26.88935089111328 156.3070678710938 19.83001899719238 151.2589569091797 17.14130401611328 143.7451171875 C 13.58366107940674 133.8037872314453 18.60616111755371 122.784309387207 28.33725547790527 119.1807632446289 C 44.23594665527344 113.2925491333008 60.94273376464844 110.306999206543 77.99380493164062 110.306999206543 C 95.04568481445312 110.306999206543 111.7528991699219 113.2925491333008 127.6513519287109 119.1806869506836 C 137.3824462890625 122.7842102050781 142.4054260253906 133.8039093017578 138.8486328125 143.7454528808594 C 136.1592864990234 151.2585296630859 129.1000213623047 156.3069915771484 121.2829208374023 156.3069915771484 Z" stroke="none"/>
        <path d="M 121.2829208374023 150.3070068359375 C 126.5728912353516 150.3070068359375 131.3619842529297 146.8571319580078 133.1993408203125 141.7243041992188 C 135.6539154052734 134.8634796142578 132.2305450439453 127.2746047973633 125.567512512207 124.8072204589844 C 110.3383026123047 119.1668930053711 94.33218383789062 116.307014465332 77.99380493164062 116.307014465332 C 61.65627670288086 116.307014465332 45.65056991577148 119.1668930053711 30.42083549499512 124.8073959350586 C 23.75836372375488 127.2745742797852 20.33536338806152 134.8630676269531 22.79051208496094 141.7236328125 C 24.62765884399414 146.857666015625 29.41662788391113 150.3069305419922 34.707275390625 150.3066864013672 C 36.15801239013672 150.3066253662109 37.59845352172852 150.0455780029297 38.98827743530273 149.5309295654297 C 51.46001052856445 144.9121246337891 64.58336639404297 142.5702209472656 77.99380493164062 142.5702209472656 C 91.40506744384766 142.5702209472656 104.5288314819336 144.9121246337891 117.0034255981445 149.5319519042969 C 118.3910140991211 150.0462493896484 119.8308334350586 150.3070068359375 121.2829208374023 150.3070068359375 M 121.2829208374023 162.3070068359375 C 118.4766006469727 162.3070068359375 115.6233673095703 161.8181610107422 112.8330993652344 160.7840118408203 C 101.7004852294922 156.6611633300781 89.97869110107422 154.5702209472656 77.99380493164062 154.5702209472656 C 66.01015472412109 154.5702209472656 54.28836441040039 156.6611633300781 43.15574645996094 160.7840118408203 C 30.33590126037598 165.5313262939453 16.1585693359375 158.8074340820312 11.49209976196289 145.7666320800781 C 6.824393272399902 132.7233123779297 13.43380546569824 118.301513671875 26.25365829467773 113.5541915893555 C 42.82104110717773 107.4182739257812 60.22954177856445 104.307014465332 77.99380493164062 104.307014465332 C 95.76054382324219 104.307014465332 113.1678314208984 107.4182739257812 129.7351837158203 113.5541915893555 C 142.5550689697266 118.301513671875 149.1644744873047 132.7233123779297 144.4979858398438 145.7666320800781 C 140.8455657958984 155.9700775146484 131.373046875 162.3070068359375 121.2829208374023 162.3070068359375 Z" stroke="none" fill="#fff"/>
      </g>
      <path id="Path_855" data-name="Path 855" d="M121.283,162.307a24.263,24.263,0,0,1-8.45-1.523,100.771,100.771,0,0,0-69.677,0,24.591,24.591,0,0,1-31.664-15.017,25.253,25.253,0,0,1,14.762-32.212,149.376,149.376,0,0,1,103.482,0A25.254,25.254,0,0,1,144.5,145.767,24.737,24.737,0,0,1,121.283,162.307Z" transform="translate(-1145.995 169.693)" fill="#fff"/>
      <path id="Path_856" data-name="Path 856" d="M20,0C35.046,0,40,4.029,40,9s-4.954,9-20,9S0,13.971,0,9,4.954,0,20,0Z" transform="translate(-1339.957 332)" fill="#fdc2ce"/>
      <path id="Path_857" data-name="Path 857" d="M20,0C35.046,0,40,4.029,40,9s-4.954,9-20,9S0,13.971,0,9,4.954,0,20,0Z" transform="translate(-1088 332)" fill="#fdc2ce"/>
      <g id="Ellipse_359" data-name="Ellipse 359" transform="translate(-1388 276)" fill="none" stroke="#0c0c0c" stroke-width="12">
        <ellipse cx="18.5" cy="19" rx="18.5" ry="19" stroke="none"/>
        <ellipse cx="18.5" cy="19" rx="12.5" ry="13" fill="none"/>
      </g>
      <g id="Ellipse_360" data-name="Ellipse 360" transform="translate(-1036 292)" fill="none" stroke="#0c0c0c" stroke-width="12">
        <circle cx="19" cy="19" r="19" stroke="none"/>
        <circle cx="19" cy="19" r="13" fill="none"/>
      </g>
      <path id="Subtraction_45" data-name="Subtraction 45" d="M125,250a125.921,125.921,0,0,1-25.192-2.54,124.317,124.317,0,0,1-44.7-18.809,125.364,125.364,0,0,1-45.288-55A124.366,124.366,0,0,1,2.54,150.192a126.216,126.216,0,0,1,0-50.384,124.317,124.317,0,0,1,18.808-44.7,125.365,125.365,0,0,1,55-45.288A124.366,124.366,0,0,1,99.808,2.54a126.216,126.216,0,0,1,50.384,0,124.318,124.318,0,0,1,44.7,18.808,125.365,125.365,0,0,1,45.288,55,124.367,124.367,0,0,1,7.284,23.464,126.216,126.216,0,0,1,0,50.384,124.318,124.318,0,0,1-18.809,44.7,125.365,125.365,0,0,1-55,45.288,124.368,124.368,0,0,1-23.464,7.284A125.92,125.92,0,0,1,125,250Zm0-150a25,25,0,1,0,25,25A25.029,25.029,0,0,0,125,100Z" transform="translate(-1319 635)" fill="url(#linear-gradient)"/>
      <g id="Ellipse_363" data-name="Ellipse 363" transform="translate(-1319 635)" fill="none" stroke="#fff" stroke-width="10" opacity="0.3">
        <circle cx="125" cy="125" r="125" stroke="none"/>
        <circle cx="125" cy="125" r="120" fill="none"/>
      </g>
      <path id="Subtraction_46" data-name="Subtraction 46" d="M711.874,40.839A559.35,559.35,0,0,0,642.6,26.049,80.881,80.881,0,0,1,657.4.038C662.9-6.247,668.5-10,672.375-10c2.321,0,5.635,1.376,9.331,3.873A64.4,64.4,0,0,1,693.544,4.566a83.115,83.115,0,0,1,11.128,16.119,72.526,72.526,0,0,1,7.2,20.153Zm-302.691-.3v0h0A72.695,72.695,0,0,1,416.427,20.5a83.115,83.115,0,0,1,11.11-16.024A64.2,64.2,0,0,1,439.331-6.152C443.012-8.633,446.312-10,448.625-10c3.865,0,9.448,3.737,14.933,10a80.828,80.828,0,0,1,14.8,25.912A559.021,559.021,0,0,0,409.183,40.543Z" transform="translate(-1754 200)" fill="#333"/>
    </g>
  </g>
</svg>
