<svg xmlns="http://www.w3.org/2000/svg" xmlns:xlink="http://www.w3.org/1999/xlink" width="24" height="24" viewBox="0 0 24 24">
  <defs>
    <clipPath id="clip-path">
      <rect id="Rectangle_13593" data-name="Rectangle 13593" width="20" height="20" fill="#fff" stroke="#707070" stroke-width="1"/>
    </clipPath>
    <clipPath id="clip-icon-edit">
      <rect width="24" height="24"/>
    </clipPath>
  </defs>
  <g id="icon-edit" clip-path="url(#clip-icon-edit)">
    <g id="Mask_Group_473" data-name="Mask Group 473" transform="translate(2 2)" clip-path="url(#clip-path)">
      <g id="Edit" transform="translate(3.333 1.667)">
        <path id="Path_1065" data-name="Path 1065" d="M4,20.833A.833.833,0,0,1,4.833,20H16.5a.833.833,0,0,1,0,1.667H4.833A.833.833,0,0,1,4,20.833Z" transform="translate(-4 -4.998)" fill="#fff"/>
        <path id="Path_1066" data-name="Path 1066" d="M11.151,5.329a.417.417,0,0,0-.589,0L7.329,8.561a.417.417,0,0,0,0,.589l3.923,3.923a.417.417,0,0,0,.589,0l3.232-3.232a.417.417,0,0,0,0-.589Z" transform="translate(-4.535 -2.533)" fill="#fff"/>
        <path id="Path_1067" data-name="Path 1067" d="M9.535,15.617A.18.18,0,0,0,9.6,15.31L5.559,11.272a.18.18,0,0,0-.308.062h0L4.037,15.7a.917.917,0,0,0,1.129,1.129l4.369-1.214Z" transform="translate(-4 -3.534)" fill="#fff"/>
        <path id="Path_1068" data-name="Path 1068" d="M13.625,2.73a2.5,2.5,0,0,1,3.535,0l.976.976a2.5,2.5,0,0,1,0,3.536l-.3.3a.417.417,0,0,1-.589,0L13.329,3.615a.417.417,0,0,1,0-.589Z" transform="translate(-5.535 -1.998)" fill="#fff"/>
      </g>
    </g>
  </g>
</svg>
