<svg xmlns="http://www.w3.org/2000/svg" xmlns:xlink="http://www.w3.org/1999/xlink" width="24" height="24" viewBox="0 0 24 24">
  <defs>
    <clipPath id="clip-path">
      <rect id="Rectangle_13588" data-name="Rectangle 13588" width="20" height="20"/>
    </clipPath>
    <clipPath id="clip-icon-pause">
      <rect width="24" height="24"/>
    </clipPath>
  </defs>
  <g id="icon-pause" clip-path="url(#clip-icon-pause)">
    <g id="play" transform="translate(2 2)" clip-path="url(#clip-path)">
      <g id="Group_1138" data-name="Group 1138" transform="translate(4.28 2.857)">
        <g id="Group_1137" data-name="Group 1137">
          <path id="Path_1044" data-name="Path 1044" d="M-6.205-10C-7.969-10-8-8.56-8-8.56L-8.008,2.846S-7.991,4.28-6.217,4.28s1.783-1.426,1.783-1.426l.014-11.426S-4.442-10-6.205-10Z" transform="translate(8.008 10)" fill="#fff"/>
          <path id="Path_1045" data-name="Path 1045" d="M-6.205-10C-7.969-10-8-8.56-8-8.56L-8.008,2.846S-7.991,4.28-6.217,4.28s1.783-1.426,1.783-1.426l.014-11.426S-4.442-10-6.205-10Z" transform="translate(8.008 10)" fill="rgba(0,0,0,0)" stroke="#fff" stroke-width="0"/>
        </g>
      </g>
      <g id="Group_1140" data-name="Group 1140" transform="translate(12.003 2.857)">
        <g id="Group_1139" data-name="Group 1139" transform="translate(0)">
          <path id="Path_1046" data-name="Path 1046" d="M-6.205-10C-7.969-10-8-8.56-8-8.56L-8.008,2.846S-7.991,4.28-6.217,4.28s1.783-1.426,1.783-1.426l.014-11.426S-4.442-10-6.205-10Z" transform="translate(8.008 10)" fill="#fff"/>
          <path id="Path_1047" data-name="Path 1047" d="M-6.205-10C-7.969-10-8-8.56-8-8.56L-8.008,2.846S-7.991,4.28-6.217,4.28s1.783-1.426,1.783-1.426l.014-11.426S-4.442-10-6.205-10Z" transform="translate(8.008 10)" fill="rgba(0,0,0,0)" stroke="#fff" stroke-width="0"/>
        </g>
      </g>
      <g id="Group_1143" data-name="Group 1143" transform="translate(-4.29 2.168)" opacity="0">
        <g id="Group_1141" data-name="Group 1141" transform="translate(7.147 7.832)">
          <path id="Path_1048" data-name="Path 1048" d="M0,0" fill="#fff"/>
          <path id="Path_1049" data-name="Path 1049" d="M0,0" fill="rgba(0,0,0,0)" stroke="#fff" stroke-width="0"/>
        </g>
        <g id="Group_1142" data-name="Group 1142" transform="translate(0 0)">
          <path id="Path_1050" data-name="Path 1050" d="M-7.881-10.9a2.156,2.156,0,0,0-1.708.29c-.491.4-.413,1.769-.413,1.769V2.593s-.089,1.59.714,2.126,2.857-.686,2.857-.686L2.833-1.794A1.988,1.988,0,0,0,3.57-3.133a2.146,2.146,0,0,0-.736-1.384Z" transform="translate(10.006 10.965)" fill="#fff"/>
          <path id="Path_1051" data-name="Path 1051" d="M-7.881-10.9a2.156,2.156,0,0,0-1.708.29c-.491.4-.413,1.769-.413,1.769V2.593s-.089,1.59.714,2.126,2.857-.686,2.857-.686L2.833-1.794A1.988,1.988,0,0,0,3.57-3.133a2.146,2.146,0,0,0-.736-1.384Z" transform="translate(10.006 10.965)" fill="rgba(0,0,0,0)" stroke="#fff" stroke-width="0"/>
        </g>
      </g>
    </g>
  </g>
</svg>
