<svg xmlns="http://www.w3.org/2000/svg" xmlns:xlink="http://www.w3.org/1999/xlink" width="24" height="24" viewBox="0 0 24 24">
  <defs>
    <clipPath id="clip-path">
      <rect id="Rectangle_13591" data-name="Rectangle 13591" width="24" height="24"/>
    </clipPath>
  </defs>
  <g id="icon-muted" clip-path="url(#clip-path)">
    <g id="play" clip-path="url(#clip-path)">
      <g id="Group_1156" data-name="Group 1156" transform="translate(3.273 4.013)">
        <g id="Group_1155" data-name="Group 1155">
          <g id="Group_1154" data-name="Group 1154" transform="translate(0 0)">
            <path id="Path_1063" data-name="Path 1063" d="M-23.393-28.144a.542.542,0,0,1,.12.341v13a.547.547,0,0,1-.545.545.558.558,0,0,1-.341-.12l-4.568-3.655h-1.091A2.181,2.181,0,0,1-32-20.21v-2.182a2.181,2.181,0,0,1,2.182-2.182h1.091l4.568-3.655A.546.546,0,0,1-23.393-28.144Zm3.878-1.036A8.73,8.73,0,0,1-14.546-21.3a8.726,8.726,0,0,1-4.977,7.882,1.089,1.089,0,0,1-1.454-.515,1.092,1.092,0,0,1,.515-1.454A6.543,6.543,0,0,0-16.728-21.3a6.547,6.547,0,0,0-3.725-5.91,1.089,1.089,0,0,1-.515-1.454A1.089,1.089,0,0,1-19.515-29.18Zm-1.576,4.1a4.365,4.365,0,0,1,2.182,3.78,4.365,4.365,0,0,1-2.182,3.78Z" transform="translate(32 29.287)" fill="#fff"/>
          </g>
        </g>
      </g>
      <g id="Group_1158" data-name="Group 1158" transform="translate(1.516 3.059)">
        <g id="Group_1157" data-name="Group 1157" transform="translate(0)">
          <path id="Path_1064" data-name="Path 1064" d="M-34.793-33.249a1.091,1.091,0,0,1,0-1.543h0a1.091,1.091,0,0,1,1.543,0l16.97,16.97a1.091,1.091,0,0,1,0,1.543h0a1.091,1.091,0,0,1-1.543,0Z" transform="translate(35.112 35.112)" fill="#fff"/>
        </g>
      </g>
    </g>
  </g>
</svg>
