<svg xmlns="http://www.w3.org/2000/svg" xmlns:xlink="http://www.w3.org/1999/xlink" width="24" height="24" viewBox="0 0 24 24">
  <defs>
    <clipPath id="clip-path">
      <rect id="Rectangle_13590" data-name="Rectangle 13590" width="24" height="24"/>
    </clipPath>
  </defs>
  <g id="icon-setting" clip-path="url(#clip-path)">
    <g id="play" clip-path="url(#clip-path)">
      <g id="Group_1152" data-name="Group 1152" transform="translate(2.182 2.689)">
        <g id="Group_1151" data-name="Group 1151" transform="translate(0)">
          <path id="Path_1056" data-name="Path 1056" d="M-26.182-22.524a2.181,2.181,0,0,1-2.182-2.182,2.181,2.181,0,0,1,2.182-2.182A2.181,2.181,0,0,1-24-24.705,2.181,2.181,0,0,1-26.182-22.524Zm0,2.182a4.362,4.362,0,0,0,4.364-4.364,4.362,4.362,0,0,0-4.364-4.364,4.362,4.362,0,0,0-4.364,4.364A4.362,4.362,0,0,0-26.182-20.342Zm1.238,3.105a7.715,7.715,0,0,1-1.238.1,7.715,7.715,0,0,1-1.238-.1l-1.135,1.377a1.091,1.091,0,0,1-1.388.251l-2.179-1.257a1.091,1.091,0,0,1-.475-1.328l.608-1.62a7.674,7.674,0,0,1-1.342-2.264l-1.759-.295A1.089,1.089,0,0,1-36-23.446v-2.517a1.089,1.089,0,0,1,.911-1.075l1.707-.286a7.638,7.638,0,0,1,1.293-2.288l-.627-1.672a1.1,1.1,0,0,1,.477-1.328l2.179-1.257a1.091,1.091,0,0,1,1.388.251l1.1,1.336a7.539,7.539,0,0,1,1.391-.128,7.539,7.539,0,0,1,1.391.128l1.1-1.336A1.091,1.091,0,0,1-22.3-33.87l2.179,1.257a1.1,1.1,0,0,1,.477,1.328l-.627,1.672a7.638,7.638,0,0,1,1.293,2.288l1.707.286a1.089,1.089,0,0,1,.911,1.075v2.517a1.089,1.089,0,0,1-.911,1.075l-1.759.295a7.674,7.674,0,0,1-1.342,2.264l.608,1.62a1.091,1.091,0,0,1-.475,1.328l-2.179,1.257a1.091,1.091,0,0,1-1.388-.251Z" transform="translate(36 34.017)" fill="#fff"/>
        </g>
      </g>
    </g>
  </g>
</svg>
