<svg xmlns="http://www.w3.org/2000/svg" xmlns:xlink="http://www.w3.org/1999/xlink" width="24" height="24" viewBox="0 0 24 24">
  <defs>
    <clipPath id="clip-icon-logout">
      <rect width="24" height="24"/>
    </clipPath>
  </defs>
  <g id="icon-logout" clip-path="url(#clip-icon-logout)">
    <g id="Group_1153" data-name="Group 1153" transform="translate(-998 -2563)">
      <path id="Path_1058" data-name="Path 1058" d="M17.614,9.3a.787.787,0,0,0,0-.6.778.778,0,0,0-.169-.255L15.222,6.223a.786.786,0,1,0-1.111,1.111l.881.881H8A.786.786,0,1,0,8,9.786h6.992l-.881.881a.786.786,0,0,0,1.111,1.111l2.222-2.222a.778.778,0,0,0,.169-.255" transform="translate(1001.071 2566.071)" fill="#fff" fill-rule="evenodd"/>
      <path id="Path_1059" data-name="Path 1059" d="M11.889,5.111a5.5,5.5,0,1,0,0,7.778A.786.786,0,0,1,13,14,7.071,7.071,0,1,1,13,4a.786.786,0,1,1-1.111,1.111Z" transform="translate(1001.071 2566.071)" fill="#fff" fill-rule="evenodd"/>
    </g>
  </g>
</svg>
