<svg xmlns="http://www.w3.org/2000/svg" xmlns:xlink="http://www.w3.org/1999/xlink" width="24" height="24" viewBox="0 0 24 24">
  <defs>
    <clipPath id="clip-icon-user">
      <rect width="24" height="24"/>
    </clipPath>
  </defs>
  <g id="icon-user" clip-path="url(#clip-icon-user)">
    <path id="Rectangle_13554" data-name="Rectangle 13554" d="M8,8A4,4,0,1,0,4,4,4,4,0,0,0,8,8Zm5.9,2.667H2.1A1.522,1.522,0,0,0,.391,11.939,11.612,11.612,0,0,0,0,14.769C0,15.385.14,16,.923,16H15.077c.783,0,.923-.615.923-1.231a11.607,11.607,0,0,0-.392-2.831A1.519,1.519,0,0,0,13.9,10.667Z" transform="translate(4 4)" fill="#fff"/>
  </g>
</svg>
