<svg xmlns="http://www.w3.org/2000/svg" xmlns:xlink="http://www.w3.org/1999/xlink" width="24" height="24" viewBox="0 0 24 24">
  <defs>
    <clipPath id="clip-path">
      <rect id="Rectangle_13589" data-name="Rectangle 13589" width="24" height="24"/>
    </clipPath>
    <clipPath id="clip-path-2">
      <path id="Path_1055" data-name="Path 1055" d="M0,0H24V24H0Z"/>
    </clipPath>
  </defs>
  <g id="icon-volume" clip-path="url(#clip-path)">
    <g id="play" clip-path="url(#clip-path)">
      <g id="Group_1150" data-name="Group 1150" clip-path="url(#clip-path-2)">
        <g id="Group_1145" data-name="Group 1145" transform="translate(3.273 4.953)">
          <g id="Group_1144" data-name="Group 1144" transform="translate(0 0)">
            <path id="Path_1052" data-name="Path 1052" d="M-7.393-25.633a.542.542,0,0,1,.12.341v13a.547.547,0,0,1-.545.545.558.558,0,0,1-.341-.12l-4.568-3.655h-1.091A2.181,2.181,0,0,1-16-17.7v-2.182a2.181,2.181,0,0,1,2.182-2.182h1.091l4.568-3.655A.546.546,0,0,1-7.393-25.633Z" transform="translate(16 25.837)" fill="#fff"/>
          </g>
        </g>
        <g id="Group_1147" data-name="Group 1147" transform="translate(14.182 8.22)">
          <g id="Group_1146" data-name="Group 1146" transform="translate(0 0)">
            <path id="Path_1053" data-name="Path 1053" d="M-4-13.859a4.365,4.365,0,0,1,2.182,3.78A4.365,4.365,0,0,1-4-6.3Z" transform="translate(4 13.859)" fill="#fff"/>
          </g>
        </g>
        <g id="Group_1149" data-name="Group 1149" transform="translate(14.19 4.015)">
          <g id="Group_1148" data-name="Group 1148" transform="translate(0 0)">
            <path id="Path_1054" data-name="Path 1054" d="M-10.417-29.18A8.73,8.73,0,0,1-5.448-21.3a8.726,8.726,0,0,1-4.977,7.882,1.089,1.089,0,0,1-1.454-.515,1.092,1.092,0,0,1,.515-1.454A6.543,6.543,0,0,0-7.63-21.3a6.547,6.547,0,0,0-3.725-5.91,1.089,1.089,0,0,1-.515-1.454A1.089,1.089,0,0,1-10.417-29.18Z" transform="translate(11.985 29.287)" fill="#fff"/>
          </g>
        </g>
      </g>
    </g>
  </g>
</svg>
