<svg xmlns="http://www.w3.org/2000/svg" xmlns:xlink="http://www.w3.org/1999/xlink" width="24" height="24" viewBox="0 0 24 24">
  <defs>
    <clipPath id="clip-icon-upload">
      <rect width="24" height="24"/>
    </clipPath>
  </defs>
  <g id="icon-upload" clip-path="url(#clip-icon-upload)">
    <path id="play" d="M76.537,139.008l-2.55,2.58a.712.712,0,0,1-1.012-1l3.768-3.812a.712.712,0,0,1,1.012,0l3.768,3.812a.712.712,0,1,1-1.014,1l-2.549-2.58v8.179a.712.712,0,0,1-1.423,0v-8.179Zm4.479,7.366a.712.712,0,0,1,0-1.423h2.512a2.733,2.733,0,0,1,2.722,2.744v1.525a2.733,2.733,0,0,1-2.722,2.744H70.97a2.732,2.732,0,0,1-2.721-2.744v-1.525a2.733,2.733,0,0,1,2.722-2.744h2.51a.712.712,0,0,1,0,1.423H70.97a1.309,1.309,0,0,0-1.3,1.321v1.525a1.31,1.31,0,0,0,1.3,1.321H83.527a1.31,1.31,0,0,0,1.3-1.321v-1.525a1.31,1.31,0,0,0-1.3-1.321H81.016Z" transform="translate(-65.249 -132.565)" fill="#fff"/>
  </g>
</svg>
