<svg xmlns="http://www.w3.org/2000/svg" xmlns:xlink="http://www.w3.org/1999/xlink" width="24" height="24" viewBox="0 0 24 24">
  <defs>
    <clipPath id="clip-path">
      <rect id="Rectangle_13588" data-name="Rectangle 13588" width="20" height="20"/>
    </clipPath>
    <clipPath id="clip-icon-pause-black">
      <rect width="24" height="24"/>
    </clipPath>
  </defs>
  <g id="icon-pause-black" clip-path="url(#clip-icon-pause-black)">
    <g id="play" transform="translate(2 2)" clip-path="url(#clip-path)">
      <path id="Path_1044" data-name="Path 1044" d="M-6.205-10C-7.969-10-8-8.56-8-8.56L-8.008,2.846S-7.991,4.28-6.217,4.28s1.783-1.426,1.783-1.426l.014-11.426S-4.442-10-6.205-10Z" transform="translate(12.288 12.857)"/>
      <path id="Path_1046" data-name="Path 1046" d="M-6.205-10C-7.969-10-8-8.56-8-8.56L-8.008,2.846S-7.991,4.28-6.217,4.28s1.783-1.426,1.783-1.426l.014-11.426S-4.442-10-6.205-10Z" transform="translate(20.011 12.857)"/>
    </g>
  </g>
</svg>
