<svg xmlns="http://www.w3.org/2000/svg" xmlns:xlink="http://www.w3.org/1999/xlink" width="900" height="300" viewBox="0 0 900 300">
  <defs>
    <clipPath id="clip-path">
      <rect id="Rectangle_13586" data-name="Rectangle 13586" width="900" height="300" fill="#fff" stroke="#707070" stroke-width="1"/>
    </clipPath>
    <clipPath id="clip-sound-text">
      <rect width="900" height="300"/>
    </clipPath>
  </defs>
  <g id="sound-text" clip-path="url(#clip-sound-text)">
    <g id="Mask_Group_471" data-name="Mask Group 471" clip-path="url(#clip-path)">
      <path id="Path_976" data-name="Path 976" d="M136.681-178.641,74.845-203.317l-4.993-6.074v-39.861l3.841-3.8H92.9l3.841,3.8v43.278h61.452v-50.87c0-28.852-13.059-39.481-29.958-45.556H38.358C21.459-296.326,8.4-285.7,8.4-256.844v57.7c0,20.5,2.689,33.407,21.508,41.759l63.372,28.093,3.457,5.315v41.759l-3.841,3.8h-19.2l-3.841-3.8V-128.53H8.4v53.907c0,28.852,13.059,39.481,29.958,45.556h89.874c16.9-6.074,29.958-16.7,29.958-45.556v-62.259C158.189-157.382,155.5-171.048,136.681-178.641Zm188.581-78.2c0-28.852-13.059-39.481-29.958-45.556H205.43c-16.9,6.074-29.958,16.7-29.958,45.556V-74.622c0,28.852,13.059,39.481,29.958,45.556H295.3c16.9-6.074,29.958-16.7,29.958-45.556ZM263.81-82.215l-3.841,3.8h-19.2l-3.841-3.8V-249.252l3.841-3.8h19.2l3.841,3.8ZM405.918-302.4H344.466V-74.622c0,28.852,13.059,39.481,29.958,45.556h86.033c16.9-6.074,29.958-16.7,29.958-45.556V-302.4H428.962V-82.215l-3.841,3.8H409.758l-3.841-3.8ZM605.636-183.2H601.8L563.388-302.4h-53.77V-29.067h53.77v-119.2h3.841l38.407,119.2h53.771V-302.4H605.636ZM828.4-256.844c0-28.852-13.058-39.481-29.958-45.556H678.611V-29.067H798.442c16.9-6.074,29.958-16.7,29.958-45.556Zm-65.293,3.8,3.841,3.8V-82.215l-3.841,3.8H740.063v-174.63Z" transform="translate(31.6 315.4)" fill="#fff"/>
    </g>
  </g>
</svg>
