<svg xmlns="http://www.w3.org/2000/svg" xmlns:xlink="http://www.w3.org/1999/xlink" width="85" height="20" viewBox="0 0 85 20">
  <defs>
    <clipPath id="clip-sound-logo">
      <rect width="85" height="20"/>
    </clipPath>
  </defs>
  <g id="sound-logo" clip-path="url(#clip-sound-logo)">
    <path id="Path_1249" data-name="Path 1249" d="M70,10V20H40a10.015,10.015,0,0,0-7.72,3.64l-.29.38L30,26.67l-.85,1.13-.29.38A5.007,5.007,0,0,1,25,30H0V20H30a10.015,10.015,0,0,0,7.72-3.64c.1-.12.2-.25.29-.38L40,13.33l.85-1.13.29-.38A5.007,5.007,0,0,1,45,10Z" transform="translate(0 -10)" fill="#fff"/>
    <circle id="Ellipse_450" data-name="Ellipse 450" cx="3.5" cy="3.5" r="3.5" transform="translate(75 13)" fill="#fff"/>
  </g>
</svg>
