<svg xmlns="http://www.w3.org/2000/svg" xmlns:xlink="http://www.w3.org/1999/xlink" width="1860" height="300" viewBox="0 0 1860 300">
  <defs>
    <clipPath id="clip-sound-text">
      <rect width="1860" height="300"/>
    </clipPath>
  </defs>
  <g id="sound-text" clip-path="url(#clip-sound-text)">
    <path id="Path_1071" data-name="Path 1071" d="M136.29-151.69,74.305-176.715l-5-6.16V-223.3l3.85-3.85H92.4l3.85,3.85v43.89h61.6V-231c0-29.26-13.09-40.04-30.03-46.2H37.73C20.79-271.04,7.7-260.26,7.7-231v58.52c0,20.79,2.695,33.88,21.56,42.35l63.525,28.49,3.465,5.39V-53.9L92.4-50.05H73.15L69.3-53.9v-46.97H7.7V-46.2C7.7-16.94,20.79-6.16,37.73,0h90.09c16.94-6.16,30.03-16.94,30.03-46.2v-63.14C157.85-130.13,155.155-143.99,136.29-151.69ZM325.325-231c0-29.26-13.09-40.04-30.03-46.2h-90.09c-16.94,6.16-30.03,16.94-30.03,46.2V-46.2c0,29.26,13.09,40.04,30.03,46.2H295.3c16.94-6.16,30.03-16.94,30.03-46.2Zm-61.6,177.1-3.85,3.85h-19.25l-3.85-3.85V-223.3l3.85-3.85h19.25l3.85,3.85Zm142.45-223.3h-61.6v231c0,29.26,13.09,40.04,30.03,46.2h86.24c16.94-6.16,30.03-16.94,30.03-46.2v-231h-61.6V-53.9l-3.85,3.85h-15.4l-3.85-3.85Zm200.2,120.89h-3.85l-38.5-120.89h-53.9V0h53.9V-120.89h3.85L606.375,0h53.9V-277.2h-53.9ZM829.675-231c0-29.26-13.09-40.04-30.03-46.2H679.525V0h120.12c16.94-6.16,30.03-16.94,30.03-46.2Zm-65.45,3.85,3.85,3.85V-53.9l-3.85,3.85h-23.1v-177.1ZM1036.42,0h75.46l30.8-229.075V-277.2h-54.67l-11.935,164.4h-3.85L1060.29-277.2H984.445l-11.55,164.4h-3.85L957.11-277.2H902.44v48.125L933.24,0h75.46l11.935-168.245h3.85Zm271.425-231c0-29.26-13.09-40.04-30.03-46.2h-90.09c-16.94,6.16-30.03,16.94-30.03,46.2V-46.2c0,29.26,13.09,40.04,30.03,46.2h90.09c16.94-6.16,30.03-16.94,30.03-46.2Zm-61.6,177.1-3.85,3.85h-19.25l-3.85-3.85V-223.3l3.85-3.85h19.25l3.85,3.85ZM1411.8-227.15l3.85,3.85v61.6l-3.85,3.85h-23.1v-69.3ZM1388.7,0V-107.8h6.545L1430.66,0h53.9V-38.885l-33.11-88.55c15.015-6.545,25.8-18.1,25.8-44.66V-231c0-29.26-13.09-40.04-30.03-46.2H1327.1V0Zm107.03,0H1620.85V-57.75h-63.525V-277.2h-61.6Zm288.75-231c0-29.26-13.09-40.04-30.03-46.2h-120.12V0h120.12c16.94-6.16,30.03-16.94,30.03-46.2Zm-65.45,3.85,3.85,3.85V-53.9l-3.85,3.85h-23.1v-177.1Z" transform="translate(34.3 288.2)" fill="#fff"/>
  </g>
</svg>
